# Blender v2.83.0 OBJ File: ''
# www.blender.org
mtllib arrow.mtl
o Cone
v 0.000000 40.000000 -5.000000
v 0.975452 40.000000 -4.903926
v 1.913417 40.000000 -4.619398
v 2.777851 40.000000 -4.157348
v 3.535534 40.000000 -3.535534
v 4.157348 40.000000 -2.777851
v 4.619398 40.000000 -1.913417
v 4.903926 40.000000 -0.975452
v 5.000000 40.000000 -0.000000
v 4.903926 40.000000 0.975451
v 4.619398 40.000000 1.913416
v 4.157348 40.000000 2.777851
v 3.535534 40.000000 3.535534
v 2.777851 40.000000 4.157348
v 1.913416 40.000000 4.619398
v 0.975450 40.000000 4.903926
v -0.000002 40.000000 5.000000
v -0.975454 40.000000 4.903926
v -1.913419 40.000000 4.619397
v -2.777853 40.000000 4.157347
v -3.535536 40.000000 3.535532
v -4.157350 40.000000 2.777848
v -4.619399 40.000000 1.913413
v 0.000000 50.000000 0.000000
v -4.903927 40.000000 0.975447
v -5.000000 40.000000 -0.000005
v -4.903925 40.000000 -0.975457
v -4.619395 40.000000 -1.913422
v -4.157345 40.000000 -2.777856
v -3.535529 40.000000 -3.535538
v -2.777846 40.000000 -4.157352
v -1.913410 40.000000 -4.619401
v -0.975444 40.000000 -4.903928
v -0.000000 0.000000 -1.751708
v 0.000000 40.000000 -1.000000
v 0.341741 0.000000 -1.718049
v 0.195090 40.000000 -0.980785
v 0.670349 0.000000 -1.618366
v 0.382683 40.000000 -0.923880
v 0.973196 0.000000 -1.456491
v 0.555570 40.000000 -0.831470
v 1.238644 0.000000 -1.238644
v 0.707107 40.000000 -0.707107
v 1.456491 0.000000 -0.973196
v 0.831470 40.000000 -0.555570
v 1.618366 0.000000 -0.670349
v 0.923880 40.000000 -0.382683
v 1.718049 0.000000 -0.341741
v 0.980785 40.000000 -0.195090
v 1.751708 0.000000 0.000000
v 1.000000 40.000000 -0.000000
v 1.718049 0.000000 0.341741
v 0.980785 40.000000 0.195090
v 1.618367 0.000000 0.670349
v 0.923880 40.000000 0.382683
v 1.456491 0.000000 0.973197
v 0.831470 40.000000 0.555570
v 1.238644 0.000000 1.238645
v 0.707107 40.000000 0.707107
v 0.973196 0.000000 1.456492
v 0.555570 40.000000 0.831470
v 0.670349 0.000000 1.618367
v 0.382683 40.000000 0.923880
v 0.341741 0.000000 1.718049
v 0.195090 40.000000 0.980785
v -0.000001 0.000000 1.751708
v -0.000000 40.000000 1.000000
v -0.341742 0.000000 1.718049
v -0.195091 40.000000 0.980785
v -0.670350 0.000000 1.618367
v -0.382684 40.000000 0.923879
v -0.973198 0.000000 1.456491
v -0.555571 40.000000 0.831469
v -1.238645 0.000000 1.238644
v -0.707107 40.000000 0.707106
v -1.456493 0.000000 0.973196
v -0.831470 40.000000 0.555570
v -1.618367 0.000000 0.670348
v -0.923880 40.000000 0.382683
v -1.718049 0.000000 0.341740
v -0.980785 40.000000 0.195089
v -1.751708 0.000000 -0.000002
v -1.000000 40.000000 -0.000001
v -1.718049 0.000000 -0.341743
v -0.980785 40.000000 -0.195091
v -1.618366 0.000000 -0.670351
v -0.923879 40.000000 -0.382684
v -1.456491 0.000000 -0.973198
v -0.831469 40.000000 -0.555571
v -1.238643 0.000000 -1.238646
v -0.707106 40.000000 -0.707108
v -0.973195 0.000000 -1.456493
v -0.555569 40.000000 -0.831470
v -0.670347 0.000000 -1.618368
v -0.382682 40.000000 -0.923880
v -0.341739 0.000000 -1.718049
v -0.195089 40.000000 -0.980786
vt 0.500000 0.800000
vt 0.500000 1.000000
vt 0.597545 0.800000
vt 0.691342 0.800000
vt 0.777785 0.800000
vt 0.853554 0.800000
vt 0.915734 0.800000
vt 0.961939 0.800000
vt 0.990393 0.800000
vt 1.000000 0.800000
vt 0.990393 0.800000
vt 0.961939 0.800000
vt 0.915734 0.800000
vt 0.853554 0.800000
vt 0.777785 0.800000
vt 0.691342 0.800000
vt 0.597545 0.800000
vt 0.500000 0.800000
vt 0.402454 0.800000
vt 0.308658 0.800000
vt 0.222214 0.800000
vt 0.146446 0.800000
vt 0.084265 0.800000
vt 0.038060 0.800000
vt 0.009607 0.800000
vt 0.000000 0.800000
vt 0.009607 0.800000
vt 0.038060 0.800000
vt 0.084265 0.800000
vt 0.146446 0.800000
vt 0.222215 0.800000
vt 0.308659 0.800000
vt 0.402455 0.800000
vt 0.500000 0.000000
vt 0.500000 0.800000
vt 0.519509 0.800000
vt 0.534174 0.000000
vt 0.538268 0.800000
vt 0.567035 0.000000
vt 0.555556 0.800000
vt 0.597319 0.000000
vt 0.570711 0.800000
vt 0.623864 0.000000
vt 0.583146 0.800000
vt 0.645649 0.000000
vt 0.592388 0.800000
vt 0.661837 0.000000
vt 0.598079 0.800000
vt 0.671805 0.000000
vt 0.600000 0.800000
vt 0.675171 0.000000
vt 0.598079 0.800000
vt 0.671805 0.000000
vt 0.592388 0.800000
vt 0.661837 0.000000
vt 0.583146 0.800000
vt 0.645649 0.000000
vt 0.570711 0.800000
vt 0.623864 0.000000
vt 0.555556 0.800000
vt 0.597319 0.000000
vt 0.538268 0.800000
vt 0.567035 0.000000
vt 0.519509 0.800000
vt 0.534174 0.000000
vt 0.500000 0.800000
vt 0.500000 0.000000
vt 0.480490 0.800000
vt 0.465826 0.000000
vt 0.461731 0.800000
vt 0.432965 0.000000
vt 0.444443 0.800000
vt 0.402680 0.000000
vt 0.429289 0.800000
vt 0.376135 0.000000
vt 0.416853 0.800000
vt 0.354351 0.000000
vt 0.407611 0.800000
vt 0.338163 0.000000
vt 0.401921 0.800000
vt 0.328195 0.000000
vt 0.400000 0.800000
vt 0.324829 0.000000
vt 0.401921 0.800000
vt 0.328195 0.000000
vt 0.407612 0.800000
vt 0.338163 0.000000
vt 0.416853 0.800000
vt 0.354351 0.000000
vt 0.429289 0.800000
vt 0.376135 0.000000
vt 0.444443 0.800000
vt 0.402681 0.000000
vt 0.461731 0.800000
vt 0.432965 0.000000
vt 0.480491 0.800000
vt 0.465826 0.000000
vn 0.0000 -0.5033 -0.8641
vn 0.0000 1.0000 0.0000
vn 0.1686 -0.5033 -0.8475
vn 0.3307 -0.5033 -0.7983
vn 0.4801 -0.5033 -0.7185
vn 0.6110 -0.5033 -0.6110
vn 0.7185 -0.5033 -0.4801
vn 0.7983 -0.5033 -0.3307
vn 0.8475 -0.5033 -0.1686
vn 0.8641 -0.5033 0.0000
vn 0.8475 -0.5033 0.1686
vn 0.7983 -0.5033 0.3307
vn 0.7185 -0.5033 0.4801
vn 0.6110 -0.5033 0.6110
vn 0.4801 -0.5033 0.7185
vn 0.3307 -0.5033 0.7983
vn 0.1686 -0.5033 0.8475
vn 0.0000 -0.5033 0.8641
vn -0.1686 -0.5033 0.8475
vn -0.3307 -0.5033 0.7983
vn -0.4801 -0.5033 0.7185
vn -0.6110 -0.5033 0.6110
vn -0.7185 -0.5033 0.4801
vn -0.7983 -0.5033 0.3307
vn -0.8475 -0.5033 0.1686
vn -0.8641 -0.5033 0.0000
vn -0.8475 -0.5033 -0.1686
vn -0.7983 -0.5033 -0.3307
vn -0.7185 -0.5033 -0.4801
vn -0.6110 -0.5033 -0.6110
vn -0.4801 -0.5033 -0.7185
vn -0.3307 -0.5033 -0.7983
vn -0.1686 -0.5033 -0.8475
vn 0.0000 -0.6788 -0.7343
vn 0.0000 0.6925 -0.7214
vn 0.1407 0.6925 -0.7075
vn 0.1432 -0.6788 -0.7201
vn 0.2761 0.6925 -0.6665
vn 0.2810 -0.6788 -0.6784
vn 0.4008 0.6925 -0.5998
vn 0.4079 -0.6788 -0.6105
vn 0.5101 0.6925 -0.5101
vn 0.5192 -0.6788 -0.5192
vn 0.5998 0.6925 -0.4008
vn 0.6105 -0.6788 -0.4079
vn 0.6665 0.6925 -0.2761
vn 0.6784 -0.6788 -0.2810
vn 0.7075 0.6925 -0.1407
vn 0.7201 -0.6788 -0.1432
vn 0.7214 0.6925 0.0000
vn 0.7343 -0.6788 0.0000
vn 0.7075 0.6925 0.1407
vn 0.7201 -0.6788 0.1432
vn 0.6665 0.6925 0.2761
vn 0.6784 -0.6788 0.2810
vn 0.5998 0.6925 0.4008
vn 0.6105 -0.6788 0.4079
vn 0.5101 0.6925 0.5101
vn 0.5192 -0.6788 0.5192
vn 0.4008 0.6925 0.5998
vn 0.4079 -0.6788 0.6105
vn 0.2761 0.6925 0.6665
vn 0.2810 -0.6788 0.6784
vn 0.1407 0.6925 0.7075
vn 0.1432 -0.6788 0.7201
vn 0.0000 0.6925 0.7214
vn 0.0000 -0.6788 0.7343
vn -0.1407 0.6925 0.7075
vn -0.1432 -0.6788 0.7201
vn -0.2761 0.6925 0.6665
vn -0.2810 -0.6788 0.6784
vn -0.4008 0.6925 0.5998
vn -0.4079 -0.6788 0.6105
vn -0.5101 0.6925 0.5101
vn -0.5192 -0.6788 0.5192
vn -0.5998 0.6925 0.4008
vn -0.6105 -0.6788 0.4079
vn -0.6665 0.6925 0.2761
vn -0.6784 -0.6788 0.2810
vn -0.7075 0.6925 0.1407
vn -0.7201 -0.6788 0.1432
vn -0.7214 0.6925 0.0000
vn -0.7343 -0.6788 0.0000
vn -0.7075 0.6925 -0.1407
vn -0.7201 -0.6788 -0.1432
vn -0.6665 0.6925 -0.2761
vn -0.6784 -0.6788 -0.2810
vn -0.5998 0.6925 -0.4008
vn -0.6105 -0.6788 -0.4079
vn -0.5101 0.6925 -0.5101
vn -0.5192 -0.6788 -0.5192
vn -0.4008 0.6925 -0.5998
vn -0.4079 -0.6788 -0.6105
vn -0.2761 0.6925 -0.6665
vn -0.2810 -0.6788 -0.6784
vn -0.1407 0.6925 -0.7075
vn -0.1432 -0.6788 -0.7201
usemtl Material.001
s 1
f 1/1/1 24/2/2 2/3/3
f 2/3/3 24/2/2 3/4/4
f 3/4/4 24/2/2 4/5/5
f 4/5/5 24/2/2 5/6/6
f 5/6/6 24/2/2 6/7/7
f 6/7/7 24/2/2 7/8/8
f 7/8/8 24/2/2 8/9/9
f 8/9/9 24/2/2 9/10/10
f 9/10/10 24/2/2 10/11/11
f 10/11/11 24/2/2 11/12/12
f 11/12/12 24/2/2 12/13/13
f 12/13/13 24/2/2 13/14/14
f 13/14/14 24/2/2 14/15/15
f 14/15/15 24/2/2 15/16/16
f 15/16/16 24/2/2 16/17/17
f 16/17/17 24/2/2 17/18/18
f 17/18/18 24/2/2 18/19/19
f 18/19/19 24/2/2 19/20/20
f 19/20/20 24/2/2 20/21/21
f 20/21/21 24/2/2 21/22/22
f 21/22/22 24/2/2 22/23/23
f 22/23/23 24/2/2 23/24/24
f 23/24/24 24/2/2 25/25/25
f 25/25/25 24/2/2 26/26/26
f 26/26/26 24/2/2 27/27/27
f 27/27/27 24/2/2 28/28/28
f 28/28/28 24/2/2 29/29/29
f 29/29/29 24/2/2 30/30/30
f 30/30/30 24/2/2 31/31/31
f 31/31/31 24/2/2 32/32/32
f 32/32/32 24/2/2 33/33/33
f 33/33/33 24/2/2 1/1/1
f 1/1/1 2/3/3 3/4/4 4/5/5 5/6/6 6/7/7 7/8/8 8/9/9 9/10/10 10/11/11 11/12/12 12/13/13 13/14/14 14/15/15 15/16/16 16/17/17 17/18/18 18/19/19 19/20/20 20/21/21 21/22/22 22/23/23 23/24/24 25/25/25 26/26/26 27/27/27 28/28/28 29/29/29 30/30/30 31/31/31 32/32/32 33/33/33
f 34/34/34 35/35/35 37/36/36 36/37/37
f 36/37/37 37/36/36 39/38/38 38/39/39
f 38/39/39 39/38/38 41/40/40 40/41/41
f 40/41/41 41/40/40 43/42/42 42/43/43
f 42/43/43 43/42/42 45/44/44 44/45/45
f 44/45/45 45/44/44 47/46/46 46/47/47
f 46/47/47 47/46/46 49/48/48 48/49/49
f 48/49/49 49/48/48 51/50/50 50/51/51
f 50/51/51 51/50/50 53/52/52 52/53/53
f 52/53/53 53/52/52 55/54/54 54/55/55
f 54/55/55 55/54/54 57/56/56 56/57/57
f 56/57/57 57/56/56 59/58/58 58/59/59
f 58/59/59 59/58/58 61/60/60 60/61/61
f 60/61/61 61/60/60 63/62/62 62/63/63
f 62/63/63 63/62/62 65/64/64 64/65/65
f 64/65/65 65/64/64 67/66/66 66/67/67
f 66/67/67 67/66/66 69/68/68 68/69/69
f 68/69/69 69/68/68 71/70/70 70/71/71
f 70/71/71 71/70/70 73/72/72 72/73/73
f 72/73/73 73/72/72 75/74/74 74/75/75
f 74/75/75 75/74/74 77/76/76 76/77/77
f 76/77/77 77/76/76 79/78/78 78/79/79
f 78/79/79 79/78/78 81/80/80 80/81/81
f 80/81/81 81/80/80 83/82/82 82/83/83
f 82/83/83 83/82/82 85/84/84 84/85/85
f 84/85/85 85/84/84 87/86/86 86/87/87
f 86/87/87 87/86/86 89/88/88 88/89/89
f 88/89/89 89/88/88 91/90/90 90/91/91
f 90/91/91 91/90/90 93/92/92 92/93/93
f 92/93/93 93/92/92 95/94/94 94/95/95
f 37/36/36 35/35/35 97/96/96 95/94/94 93/92/92 91/90/90 89/88/88 87/86/86 85/84/84 83/82/82 81/80/80 79/78/78 77/76/76 75/74/74 73/72/72 71/70/70 69/68/68 67/66/66 65/64/64 63/62/62 61/60/60 59/58/58 57/56/56 55/54/54 53/52/52 51/50/50 49/48/48 47/46/46 45/44/44 43/42/42 41/40/40 39/38/38
f 94/95/95 95/94/94 97/96/96 96/97/97
f 96/97/97 97/96/96 35/35/35 34/34/34
f 34/34/34 36/37/37 38/39/39 40/41/41 42/43/43 44/45/45 46/47/47 48/49/49 50/51/51 52/53/53 54/55/55 56/57/57 58/59/59 60/61/61 62/63/63 64/65/65 66/67/67 68/69/69 70/71/71 72/73/73 74/75/75 76/77/77 78/79/79 80/81/81 82/83/83 84/85/85 86/87/87 88/89/89 90/91/91 92/93/93 94/95/95 96/97/97
