# Blender v2.79 (sub 0) OBJ File: ''
# www.blender.org
mtllib diamond2.mtl
o Cone
v 0.000000 0.000000 -1.000000
v 1.000000 0.000000 0.000000
v 0.000000 1.000000 0.000000
v -0.000000 0.000000 1.000000
v -1.000000 0.000000 -0.000000
v 0.000000 -1.000000 -0.000000
vn -0.5774 -0.5774 -0.5774
vn 0.5774 0.5774 -0.5774
vn 0.5774 0.5774 0.5774
vn -0.5774 -0.5774 0.5774
vn -0.5774 0.5774 0.5774
vn 0.5774 -0.5774 0.5774
vn -0.5774 0.5774 -0.5774
vn 0.5774 -0.5774 -0.5774
usemtl None
s off
f 1//1 6//1 5//1
f 1//2 3//2 2//2
f 2//3 3//3 4//3
f 5//4 6//4 4//4
f 4//5 3//5 5//5
f 4//6 6//6 2//6
f 5//7 3//7 1//7
f 6//8 1//8 2//8
